<svg xmlns="http://www.w3.org/2000/svg" xmlns:stDim="http://ns.adobe.com/xap/1.0/sType/Dimensions#" xmlns:svg="http://www.w3.org/2000/svg" xmlns:x="adobe:ns:meta/" xmlns:xmp="http://ns.adobe.com/xap/1.0/" xmlns:xmpG="http://ns.adobe.com/xap/1.0/g/" xmlns:xmpGImg="http://ns.adobe.com/xap/1.0/g/img/" xmlns:xmpTPg="http://ns.adobe.com/xap/1.0/t/pg/" id="Layer_1" width="1199.317" height="550" x="0" y="0" enable-background="new 0 0 1200 1000" version="1.1" viewBox="0 0 1199.317 550" xml:space="preserve"><metadata id="metadata2"><x:xmpmeta x:xmptk="Adobe XMP Core 5.3-c011 66.145661, 2012/02/06-14:56:27"><metadata/></x:xmpmeta><?xpacket end="w"?></metadata><g id="g12" transform="translate(4,-219.39101)"><g id="g10"><circle id="circle4" cx="596.088" cy="499.644" r="197.747" style="fill:#5332a0"/><path id="path6" d="m 194.902,617.724 h 25.607 c 81.802,0 151.512,-63.308 154.357,-145.109 2.845,-85.358 -65.442,-156.491 -150.8,-156.491 H 11.381 C 4.979,316.835 0,321.813 0,328.216 v 344.991 c 0,6.401 4.979,11.381 11.381,11.381 h 160.047 c 6.402,0 11.381,-4.979 11.381,-11.381 l 0.711,-44.103 c 10e-4,-6.401 4.98,-11.38 11.382,-11.38 z" style="fill:#5332a0"/><path id="path8" d="M 966.687,316.835 754.713,668.228 c -3.557,7.824 1.422,16.36 9.958,16.36 l 173.562,0.711 249.674,-0.711 c 8.536,0 14.227,-9.247 9.959,-16.36 L 986.604,316.835 c -4.268,-8.536 -15.65,-8.536 -19.917,0 z" style="fill:#5332a0"/></g></g></svg>